#!OML:ASF F:\VICON\USERDATA\INSTALL\rory3\rory3.ASF
:FULLY-SPECIFIED
:DEGREES
377
root 0.729099 17.7856 6.43966 5.69471 -5.48527 -0.320583
lowerback 8.48316 -0.549623 -3.22282
upperback -1.64404 -0.95744 2.01545
thorax -6.40803 -0.308326 4.06883
lowerneck -18.9959 -6.73206 -10.8381
upperneck 20.2952 -8.16496 8.16472
head 10.4384 -3.67875 3.4762
rclavicle -1.49089e-014 -3.18055e-015
rhumerus -29.8779 -8.22101 -76.1653
rradius 47.5244
rwrist 2.52439
rhand -14.1383 13.1728
rfingers 7.12502
rthumb 11.9958 -16.4634
lclavicle -1.49089e-014 -3.18055e-015
lhumerus -37.9772 10.6509 70.8502
lradius 43.46
lwrist 0.0955066
lhand -18.9215 24.373
lfingers 7.12502
lthumb 7.38095 54.2242
rfemur -11.9864 3.57291 21.5382
rtibia 22.8119
rfoot -7.88903 -5.69617
rtoes 13.0825
lfemur -11.1685 -2.71701 -19.6734
ltibia 22.5264
lfoot -9.36865 10.3434
ltoes -1.24835
378
root 0.73161 17.785 6.45558 5.68373 -5.45954 -0.35234
lowerback 8.40784 -0.584882 -3.13644
upperback -1.56509 -0.993507 2.00845
thorax -6.2791 -0.333902 4.01378
lowerneck -19.0571 -6.67942 -10.777
upperneck 20.2368 -8.07093 8.05881
head 10.4106 -3.64134 3.4413
rclavicle 1.60519e-014 -9.93923e-015
rhumerus -29.6622 -9.13615 -76.0045
rradius 46.6699
rwrist 2.93347
rhand -14.2636 12.969
rfingers 7.12502
rthumb 11.8749 -16.6743
lclavicle 1.60519e-014 -9.93923e-015
lhumerus -38.0164 10.8614 70.7657
lradius 43.7666
lwrist 0.241884
lhand -18.7328 24.3471
lfingers 7.12502
lthumb 7.56309 54.1919
rfemur -11.8003 3.51381 21.5686
rtibia 22.6733
rfoot -7.87318 -5.70879
rtoes 13.0936
lfemur -11.0116 -2.7855 -19.654
ltibia 22.4144
lfoot -9.47307 10.3752
ltoes -0.906738
379
root 0.732953 17.7883 6.47696 5.61728 -5.39962 -0.267866
lowerback 8.27491 -0.602667 -3.14904
upperback -1.41596 -1.01787 1.95714
thorax -6.04375 -0.354497 3.96364
lowerneck -19.1682 -6.69382 -10.613
upperneck 20.0486 -8.06744 7.87181
head 10.3465 -3.64522 3.3432
rclavicle -3.05383e-014 5.56597e-015
rhumerus -29.5487 -10.005 -75.8548
rradius 46.0286
rwrist 3.18858
rhand -14.198 12.8837
rfingers 7.12502
rthumb 11.9382 -16.7559
lclavicle -3.05383e-014 5.56597e-015
lhumerus -38.0409 10.8661 70.7803
lradius 44.2102
lwrist 0.603515
lhand -18.6016 23.8654
lfingers 7.12502
lthumb 7.68973 53.7056
rfemur -11.5828 3.3527 21.4645
rtibia 22.5574
rfoot -7.99734 -5.60078
rtoes 13.473
lfemur -10.7653 -2.88985 -19.7737
ltibia 22.2755
lfoot -9.49672 10.4462
ltoes -0.985252
380
root 0.730301 17.7943 6.49735 5.57937 -5.34862 -0.264936
lowerback 8.19528 -0.615894 -3.19346
upperback -1.31502 -1.0361 1.98664
thorax -5.88895 -0.366776 4.01838
lowerneck -19.3329 -6.7136 -10.5121
upperneck 19.8992 -8.04716 7.67399
head 10.307 -3.64627 3.25389
rclavicle -1.68967e-014 -3.97569e-015
rhumerus -29.5641 -10.5305 -75.712
rradius 45.5881
rwrist 3.33663
rhand -14.2323 12.1306
rfingers 7.12502
rthumb 11.9051 -17.5109
lclavicle -1.68967e-014 -3.97569e-015
lhumerus -37.9742 10.8315 70.9062
lradius 44.4322
lwrist 0.863556
lhand -18.3293 24.1743
lfingers 7.12502
lthumb 7.95254 54.0047
rfemur -11.4345 3.35448 21.4656
rtibia 22.4468
rfoot -8.03452 -5.61901
rtoes 13.6097
lfemur -10.5363 -2.85214 -19.7884
ltibia 22.094
lfoot -9.41248 10.3889
ltoes -1.5325
381
root 0.731028 17.7974 6.51644 5.60053 -5.33554 -0.238605
lowerback 8.07676 -0.6145 -3.23132
upperback -1.29651 -1.03389 2.00606
thorax -5.80132 -0.366524 4.05675
lowerneck -19.3993 -6.68545 -10.4517
upperneck 19.7962 -7.97534 7.52979
head 10.2654 -3.62338 3.20152
rclavicle 2.17172e-014 -2.62396e-014
rhumerus -29.8391 -10.7678 -75.552
rradius 45.4191
rwrist 3.22341
rhand -14.338 11.0411
rfingers 7.12502
rthumb 11.8032 -18.6063
lclavicle 2.17172e-014 -2.62396e-014
lhumerus -37.8819 10.8437 71.0376
lradius 44.486
lwrist 0.860718
lhand -18.0191 25.0395
lfingers 7.12502
lthumb 8.25191 54.8583
rfemur -11.3196 3.24344 21.4271
rtibia 22.2347
rfoot -7.92578 -5.50831
rtoes 12.7229
lfemur -10.364 -2.79973 -19.8534
ltibia 21.9461
lfoot -9.42589 10.368
ltoes -1.87221
382
root 0.728881 17.801 6.53609 5.58186 -5.30717 -0.285888
lowerback 8.03609 -0.619045 -3.21935
upperback -1.38729 -1.03493 2.05942
thorax -5.87325 -0.363276 4.10718
lowerneck -19.1107 -6.65206 -10.5978
upperneck 19.7487 -7.9197 7.55702
head 10.1975 -3.61306 3.24919
rclavicle -6.65929e-015 -3.18055e-015
rhumerus -30.3863 -10.8418 -75.3611
rradius 45.2899
rwrist 3.01322
rhand -14.22 10.5917
rfingers 7.12502
rthumb 11.917 -19.0491
lclavicle -6.65929e-015 -3.18055e-015
lhumerus -38.0223 10.7805 71.1486
lradius 44.488
lwrist 0.767003
lhand -17.8759 25.2816
lfingers 7.12502
lthumb 8.39005 55.095
rfemur -11.1126 3.36628 21.4743
rtibia 21.9669
rfoot -8.07501 -5.69297
rtoes 11.8447
lfemur -10.2374 -2.90544 -19.8044
ltibia 21.8821
lfoot -9.41722 10.4798
ltoes -1.77569
383
root 0.723151 17.803 6.55428 5.58783 -5.36323 -0.561594
lowerback 8.01178 -0.587497 -3.02983
upperback -1.49663 -0.966272 2.1772
thorax -5.98217 -0.32946 4.11686
lowerneck -18.7569 -6.65244 -10.7662
upperneck 19.7394 -7.91991 7.6011
head 10.1388 -3.62984 3.29913
rclavicle 3.19049e-014 -1.19271e-015
rhumerus -30.7115 -11.1561 -75.1385
rradius 44.723
rwrist 3.21891
rhand -14.0067 10.5984
rfingers 7.12502
rthumb 12.1227 -19.0304
lclavicle 3.19049e-014 -1.19271e-015
lhumerus -38.1384 10.6581 71.2649
lradius 44.2638
lwrist 0.482575
lhand -18.0165 24.8848
lfingers 7.12502
lthumb 8.2544 54.7036
rfemur -10.8889 3.74865 21.7918
rtibia 21.6944
rfoot -8.75308 -6.18214
rtoes 9.82521
lfemur -10.2182 -3.00454 -19.4777
ltibia 21.9209
lfoot -9.47985 10.6453
ltoes -1.53343
384
root 0.725568 17.7972 6.57615 5.61918 -5.35542 -0.561313
lowerback 7.84806 -0.587464 -2.96834
upperback -1.50393 -0.956473 2.17456
thorax -5.89829 -0.328743 4.07404
lowerneck -18.7228 -6.61471 -10.8219
upperneck 19.7098 -7.85549 7.61409
head 10.1184 -3.60376 3.3235
rclavicle 1.54058e-015 1.07344e-014
rhumerus -30.8509 -11.4591 -74.9939
rradius 44.1231
rwrist 3.52064
rhand -13.9757 10.9254
rfingers 7.12502
rthumb 12.1526 -18.7016
lclavicle 1.54058e-015 1.07344e-014
lhumerus -37.9625 10.58 71.3953
lradius 43.8397
lwrist 0.1139
lhand -18.3565 23.7775
lfingers 7.12502
lthumb 7.92629 53.6089
rfemur -10.633 3.56538 21.7803
rtibia 21.3939
rfoot -8.11619 -5.82414
rtoes 13.2181
lfemur -10.1845 -2.97974 -19.5177
ltibia 21.9837
lfoot -9.67448 10.7107
ltoes -1.86485
385
root 0.731566 17.7872 6.59538 5.61494 -5.31105 -0.473713
lowerback 7.71344 -0.587672 -2.9643
upperback -1.45245 -0.954725 2.15018
thorax -5.76782 -0.332341 4.04151
lowerneck -19.0041 -6.58145 -10.7724
upperneck 19.9414 -7.77993 7.50736
head 10.2385 -3.57091 3.28594
rclavicle -9.59136e-015 -1.47101e-014
rhumerus -31.0133 -11.6596 -74.8942
rradius 43.7171
rwrist 3.68853
rhand -13.7023 11.1039
rfingers 7.12502
rthumb 12.4161 -18.5073
lclavicle -9.59136e-015 -1.47101e-014
lhumerus -37.8167 10.5705 71.5839
lradius 43.7029
lwrist -0.421119
lhand -18.5369 22.7182
lfingers 7.12502
lthumb 7.75216 52.5561
rfemur -10.2924 3.03976 21.6929
rtibia 21.0703
rfoot -8.00196 -5.40823
rtoes 12.962
lfemur -10.0866 -2.94511 -19.6672
ltibia 22.0045
lfoot -9.79416 10.6878
ltoes -2.25748
386
root 0.734345 17.7877 6.61433 5.59492 -5.30203 -0.542687
lowerback 7.55682 -0.549282 -2.83446
upperback -1.41929 -0.886886 2.16002
thorax -5.65132 -0.306228 3.96563
lowerneck -18.9647 -6.58268 -10.729
upperneck 20.0415 -7.77473 7.38512
head 10.2593 -3.58025 3.23731
rclavicle 1.09332e-015 4.37326e-015
rhumerus -31.3463 -11.7629 -74.7871
rradius 43.4378
rwrist 3.80009
rhand -13.637 11.1531
rfingers 7.12502
rthumb 12.4791 -18.4543
lclavicle 1.09332e-015 4.37326e-015
lhumerus -38.051 10.2487 71.8134
lradius 44.1591
lwrist -0.808255
lhand -18.4022 22.4885
lfingers 7.12502
lthumb 7.88218 52.3215
rfemur -10.0209 2.91072 21.7884
rtibia 20.8213
rfoot -8.1561 -5.44154
rtoes 14.2363
lfemur -9.93525 -3.1817 -19.6162
ltibia 21.894
lfoot -9.72345 10.9196
ltoes -2.6409
387
root 0.730952 17.7982 6.63215 5.65087 -5.18024 -0.535539
lowerback 7.32817 -0.543289 -2.84591
upperback -1.38968 -0.873485 2.19346
thorax -5.4907 -0.302751 4.00002
lowerneck -19.048 -6.63487 -10.8125
upperneck 20.1754 -7.81241 7.34858
head 10.3291 -3.60638 3.23114
rclavicle 8.00108e-015 -1.82882e-014
rhumerus -31.6378 -11.7837 -74.6494
rradius 43.3337
rwrist 3.9749
rhand -13.4316 11.6758
rfingers 7.12502
rthumb 12.6771 -17.9195
lclavicle 8.00108e-015 -1.82882e-014
lhumerus -38.1843 9.98287 72.09
lradius 44.5338
lwrist -1.37728
lhand -18.457 24.0134
lfingers 7.12502
lthumb 7.82927 53.8484
rfemur -9.96265 3.25324 21.7717
rtibia 20.6003
rfoot -7.80858 -5.67732
rtoes 13.1223
lfemur -9.87503 -3.5 -19.5934
ltibia 21.7102
lfoot -9.60992 11.0885
ltoes -2.49165
388
root 0.729762 17.8071 6.64825 5.71856 -5.08591 -0.417767
lowerback 7.22338 -0.565825 -2.94494
upperback -1.43766 -0.910286 2.1988
thorax -5.47697 -0.317235 4.06462
lowerneck -19.2613 -6.63213 -10.886
upperneck 20.4508 -7.76719 7.30217
head 10.465 -3.5925 3.23204
rclavicle -2.29099e-014 -1.55052e-014
rhumerus -31.8067 -11.8888 -74.5231
rradius 43.042
rwrist 4.59778
rhand -12.8899 12.1952
rfingers 7.12502
rthumb 13.1993 -17.367
lclavicle -2.29099e-014 -1.55052e-014
lhumerus -38.3023 10.0325 72.2084
lradius 44.6269
lwrist -2.17212
lhand -18.0597 25.6854
lfingers 7.12502
lthumb 8.2127 55.5058
rfemur -9.90406 3.41071 21.6102
rtibia 20.3707
rfoot -7.7182 -5.85719
rtoes 15.1762
lfemur -9.81346 -3.67123 -19.702
ltibia 21.4998
lfoot -9.61938 11.0535
ltoes -1.81605
389
root 0.727832 17.8105 6.65785 5.74169 -5.10255 -0.382783
lowerback 7.34245 -0.574815 -3.02589
upperback -1.61005 -0.930588 2.23404
thorax -5.72298 -0.315451 4.15622
lowerneck -19.0867 -6.54014 -10.8492
upperneck 20.5973 -7.6367 7.13844
head 10.4635 -3.55376 3.19263
rclavicle -2.59414e-014 9.14409e-015
rhumerus -32.1546 -11.8659 -74.4046
rradius 42.6035
rwrist 5.16771
rhand -12.2659 11.8637
rfingers 7.12502
rthumb 13.8008 -17.6585
lclavicle -2.59414e-014 9.14409e-015
lhumerus -38.7581 10.1808 72.1934
lradius 44.8092
lwrist -2.75566
lhand -17.3146 25.0648
lfingers 7.12502
lthumb 8.93174 54.8558
rfemur -9.75145 3.57249 21.5778
rtibia 20.1337
rfoot -7.7247 -6.02148
rtoes 16.4577
lfemur -9.71137 -3.63478 -19.726
ltibia 21.3187
lfoot -9.63058 10.9782
ltoes -1.46767
390
root 0.726959 17.8084 6.66696 5.7205 -5.05134 -0.42629
lowerback 7.4217 -0.572915 -3.01118
upperback -1.67191 -0.925744 2.28155
thorax -5.83343 -0.309063 4.20055
lowerneck -18.9033 -6.51318 -10.817
upperneck 20.4812 -7.60277 7.06048
head 10.3791 -3.54849 3.16708
rclavicle -1.2921e-014 -2.5842e-014
rhumerus -32.4233 -11.8028 -74.3253
rradius 42.2274
rwrist 5.29376
rhand -11.7934 11.3093
rfingers 7.12502
rthumb 14.2561 -18.1814
lclavicle -1.2921e-014 -2.5842e-014
lhumerus -39.0317 10.3447 72.3059
lradius 45.0362
lwrist -3.33489
lhand -17.5687 22.3878
lfingers 7.12502
lthumb 8.68658 52.1891
rfemur -9.55887 3.69305 21.6513
rtibia 19.9374
rfoot -7.73399 -6.14962
rtoes 15.2838
lfemur -9.58509 -3.62898 -19.6713
ltibia 21.1919
lfoot -9.62412 10.9335
ltoes -1.65943
